<?xml version="1.0" encoding="UTF-8"?>
<svg id="Camada_1" data-name="Camada 1" xmlns="http://www.w3.org/2000/svg" xmlns:xlink="http://www.w3.org/1999/xlink" viewBox="0 0 500 500">
  <defs>
    <style>
      .cls-1 {
        fill: #7881aa;
        stroke: #7881aa;
      }

      .cls-1, .cls-2, .cls-3, .cls-4, .cls-5, .cls-6, .cls-7, .cls-8, .cls-9, .cls-10 {
        stroke-miterlimit: 10;
      }

      .cls-1, .cls-2, .cls-5, .cls-6, .cls-7, .cls-8, .cls-9, .cls-10 {
        stroke-width: 3px;
      }

      .cls-11 {
        fill: #1d1d1b;
      }

      .cls-12 {
        fill: #fff;
      }

      .cls-13 {
        mask: url(#mask);
      }

      .cls-2 {
        stroke: #e71d73;
      }

      .cls-2, .cls-4, .cls-6, .cls-7, .cls-8, .cls-9, .cls-10 {
        fill: none;
      }

      .cls-3, .cls-4 {
        stroke: #7bbec1;
        stroke-width: 10px;
      }

      .cls-3, .cls-14 {
        fill: #7bbec1;
      }

      .cls-15 {
        fill: #4d478e;
      }

      .cls-5 {
        fill: #bee0d9;
        stroke: #bee0d9;
      }

      .cls-6 {
        stroke: #36a9e1;
      }

      .cls-7 {
        stroke: #1d1d1b;
      }

      .cls-8 {
        stroke: #be1622;
      }

      .cls-9 {
        stroke: #f39200;
      }

      .cls-10 {
        stroke: #1d71b8;
      }
    </style>
    <mask id="mask" x="0" y="-219.7" width="500" height="735.33" maskUnits="userSpaceOnUse">
      <g>
        <path class="cls-12" d="M250,495c-65.44,0-126.97-25.48-173.24-71.76S5,315.44,5,250,30.48,123.03,76.76,76.76,184.56,5,250,5s126.97,25.48,173.24,71.76,71.76,107.8,71.76,173.24-25.48,126.97-71.76,173.24-107.8,71.76-173.24,71.76Z"/>
        <path class="cls-11" d="M250,10c32.4,0,63.83,6.34,93.42,18.86,28.58,12.09,54.25,29.39,76.29,51.44,22.04,22.04,39.35,47.71,51.44,76.29,12.51,29.58,18.86,61.01,18.86,93.42s-6.34,63.83-18.86,93.42c-12.09,28.58-29.39,54.25-51.44,76.29-22.04,22.04-47.71,39.35-76.29,51.44-29.58,12.51-61.01,18.86-93.42,18.86s-63.83-6.34-93.42-18.86c-28.58-12.09-54.25-29.39-76.29-51.44-22.04-22.04-39.35-47.71-51.44-76.29-12.51-29.58-18.86-61.01-18.86-93.42s6.34-63.83,18.86-93.42c12.09-28.58,29.39-54.25,51.44-76.29,22.04-22.04,47.71-39.35,76.29-51.44,29.58-12.51,61.01-18.86,93.42-18.86M250,0C111.93,0,0,111.93,0,250s111.93,250,250,250,250-111.93,250-250S388.07,0,250,0h0Z"/>
      </g>
    </mask>
  </defs>
  <g>
    <path class="cls-15" d="M250,492.5c-64.77,0-125.67-25.22-171.47-71.03C32.72,375.67,7.5,314.77,7.5,250s25.22-125.67,71.03-171.47C124.33,32.72,185.23,7.5,250,7.5s125.67,25.22,171.47,71.03c45.8,45.8,71.03,106.7,71.03,171.47s-25.22,125.67-71.03,171.47c-45.8,45.8-106.7,71.03-171.47,71.03Z"/>
    <path class="cls-14" d="M250,15c31.73,0,62.51,6.21,91.47,18.46,27.98,11.84,53.12,28.78,74.7,50.37,21.59,21.59,38.53,46.72,50.37,74.7,12.25,28.96,18.46,59.74,18.46,91.47s-6.21,62.51-18.46,91.47c-11.84,27.98-28.78,53.12-50.37,74.7-21.59,21.59-46.72,38.53-74.7,50.37-28.96,12.25-59.74,18.46-91.47,18.46s-62.51-6.21-91.47-18.46c-27.98-11.84-53.12-28.78-74.7-50.37-21.59-21.59-38.53-46.72-50.37-74.7-12.25-28.96-18.46-59.74-18.46-91.47s6.21-62.51,18.46-91.47c11.84-27.98,28.78-53.12,50.37-74.7,21.59-21.59,46.72-38.53,74.7-50.37,28.96-12.25,59.74-18.46,91.47-18.46M250,0C111.93,0,0,111.93,0,250s111.93,250,250,250,250-111.93,250-250S388.07,0,250,0h0Z"/>
  </g>
  <g class="cls-13">
    <g>
      <circle class="cls-7" cx="195.4" cy="172.86" r="30.71"/>
      <circle class="cls-7" cx="304.6" cy="172.86" r="30.71"/>
      <rect class="cls-5" x="232.94" y="-218.2" width="34.13" height="273.01"/>
      <path class="cls-5" d="M367.82,356.34c-13.35.89-31.82-7.73-47.53-23.42-10.78-10.8-18.24-22.91-21.54-33.76-5.3-.23-9.81-1.91-13.1-5.2-4.91-4.91-6.25-12.64-4.48-21.55,1.11-5.53,3.41-11.53,6.8-17.6,3.92-7.06,9.3-14.2,15.94-20.86,12.26-12.24,26.18-20.18,38.06-22.66,1.79-2.78,3.45-5.65,4.98-8.6-.9-5.08-1.39-10.52-1.39-16.18,0-18.61,5.3-34.9,13.21-43.86-4.91-55.75-51.74-99.47-108.77-99.47s-103.85,43.72-108.77,99.47c7.92,8.95,13.21,25.25,13.21,43.86,0,5.65-.49,11.1-1.39,16.18,1.53,2.95,3.19,5.82,4.98,8.6,11.88,2.48,25.8,10.42,38.06,22.66,6.65,6.66,12.03,13.8,15.94,20.86,3.39,6.06,5.69,12.07,6.8,17.6,1.77,8.91.44,16.64-4.48,21.55-3.29,3.29-7.81,4.97-13.1,5.2-3.3,10.85-10.76,22.96-21.54,33.76-15.71,15.7-34.18,24.31-47.53,23.42-3.28,11.07-5.04,22.8-5.04,34.93,0,67.86,55,122.86,122.86,122.86s122.86-55,122.86-122.86c0-12.14-1.76-23.86-5.04-34.93ZM304.6,142.14c16.97,0,30.71,13.75,30.71,30.71s-13.75,30.71-30.71,30.71-30.71-13.75-30.71-30.71,13.75-30.71,30.71-30.71ZM195.4,203.57c-16.97,0-30.71-13.75-30.71-30.71s13.75-30.71,30.71-30.71,30.71,13.75,30.71,30.71-13.75,30.71-30.71,30.71Z"/>
      <g>
        <path class="cls-1" d="M302.73,308.99c-.59-1.19-1.15-2.38-1.66-3.56-7.82,28.49-27.73,48.73-51.06,48.73s-43.25-20.25-51.06-48.73c-.51,1.18-1.07,2.37-1.66,3.56,6.25,49.61,27.49,86.13,52.73,86.13s46.47-36.52,52.73-86.13Z"/>
        <rect class="cls-1" x="247.27" y="344.19" width="5.46" height="8.87"/>
        <rect class="cls-1" x="233.62" y="341.91" width="5.46" height="8.87"/>
        <rect class="cls-1" x="219.97" y="336.58" width="5.46" height="8.87"/>
        <rect class="cls-1" x="260.92" y="341.91" width="5.46" height="8.87" transform="translate(527.3 692.69) rotate(-180)"/>
        <rect class="cls-1" x="274.57" y="336.58" width="5.46" height="8.87" transform="translate(554.6 682.03) rotate(-180)"/>
      </g>
      <g>
        <path class="cls-14" d="M8.81,267.15c105.62-2.14,229.31-3.26,335.11-4.13,15.76-.09,32.22-.72,47.87,1.6,0,0,0,10,0,10-7.98,1.17-15.96,1.57-23.94,1.72-105.74-.61-229.38-1.93-335.11-3.77,0,0-23.94-.47-23.94-.47v-4.95h0Z"/>
        <g>
          <path class="cls-4" d="M391.8,230.63v78c-21.54,0-39-17.47-39-39s17.46-39,39-39Z"/>
          <path class="cls-14" d="M391.8,230.63v78c-21.54,0-39-17.47-39-39s17.46-39,39-39Z"/>
        </g>
        <path class="cls-3" d="M359.1,265.72h91.5c2.15,0,3.9,1.75,3.9,3.9h0c0,2.15-1.75,3.9-3.9,3.9h-91.5v-7.8h0Z"/>
        <path class="cls-4" d="M379.8,239.98s62.7-2.67,62.7,34.64"/>
      </g>
      <g>
        <line class="cls-8" x1="222.7" y1="341.02" x2="239.27" y2="-218.2"/>
        <line class="cls-10" x1="250" y1="348.62" x2="250" y2="-218.2"/>
        <line class="cls-9" x1="236.35" y1="346.35" x2="244.54" y2="-218.2"/>
        <line class="cls-6" x1="277.3" y1="341.02" x2="260.73" y2="-218.2"/>
        <line class="cls-2" x1="263.65" y1="346.35" x2="255.46" y2="-218.2"/>
      </g>
    </g>
  </g>
</svg>