<?xml version="1.0" encoding="UTF-8"?>
<svg id="Camada_1" data-name="Camada 1" xmlns="http://www.w3.org/2000/svg" viewBox="0 0 500 500">
  <defs>
    <style>
      .cls-1 {
        fill: #470f10;
      }

      .cls-2 {
        fill: none;
        stroke: #470f10;
        stroke-linecap: round;
        stroke-miterlimit: 10;
        stroke-width: 5px;
      }

      .cls-3 {
        fill: #7d4e24;
      }

      .cls-4 {
        fill: #a93831;
      }

      .cls-5 {
        fill: #7b6a58;
      }

      .cls-6 {
        fill: #be1622;
      }

      .cls-7 {
        fill: #943614;
      }

      .cls-8 {
        fill: #a3195b;
      }
    </style>
  </defs>
  <g>
    <path class="cls-1" d="M250,492.5c-64.77,0-125.67-25.22-171.47-71.03C32.72,375.67,7.5,314.77,7.5,250s25.22-125.67,71.03-171.47C124.33,32.72,185.23,7.5,250,7.5s125.67,25.22,171.47,71.03c45.8,45.8,71.03,106.7,71.03,171.47s-25.22,125.67-71.03,171.47c-45.8,45.8-106.7,71.03-171.47,71.03Z"/>
    <path class="cls-4" d="M250,15c31.73,0,62.51,6.21,91.47,18.46,27.98,11.84,53.12,28.78,74.7,50.37,21.59,21.59,38.53,46.72,50.37,74.7,12.25,28.96,18.46,59.74,18.46,91.47s-6.21,62.51-18.46,91.47c-11.84,27.98-28.78,53.12-50.37,74.7s-46.72,38.53-74.7,50.37c-28.96,12.25-59.74,18.46-91.47,18.46s-62.51-6.21-91.47-18.46c-27.98-11.84-53.12-28.78-74.7-50.37s-38.53-46.72-50.37-74.7c-12.25-28.96-18.46-59.74-18.46-91.47s6.21-62.51,18.46-91.47c11.84-27.98,28.78-53.12,50.37-74.7,21.59-21.59,46.72-38.53,74.7-50.37,28.96-12.25,59.74-18.46,91.47-18.46M250,0C111.93,0,0,111.93,0,250s111.93,250,250,250,250-111.93,250-250S388.07,0,250,0h0Z"/>
  </g>
  <g>
    <g>
      <path class="cls-4" d="M344.69,166.61c-26.65,18.05-52.75,39.41-61.23,70.99-1.6,5.96-2.42,11.27-2.75,16.19-27.59,15.74-44.64,0-44.64,0-7.17-20.57-17.32-40.98-30.81-56.74-1.14-1.34-3.08-3.14-5.32-5.22-1.17-1.09-2.85-2.65-4.03-3.83,2.06-3.81,8.13-12.93,12.07-18.49,4.75-6.67,9.01-11.53,12.66-14.41,1.33-1.04,4.73-2.82,7.47-4.25,2.5-1.31,4.52-2.38,6.17-3.34.27.24,4.01,3.69,10.49,8.07,4.68,3.16,10.79,6.82,18.05,10.11,7.51,3.42,16.24,6.45,25.92,8.16,5.77,1.04,11.89,1.6,18.26,1.48,11.78-.21,24.48-2.68,37.69-8.72Z"/>
      <path class="cls-3" d="M270.13,381.58c-38.73-14.18-27.35-70.01-27.35-70.01l6.22-1-.82-6.25c-2-15.08-5.95-32.86-12.11-50.53,0,0,17.05,15.74,44.64,0-.58,8.78.43,16.34,1.49,24.19.67,5.08,1.38,10.32,1.72,16.27,1.74,30.51-2.78,59.3-13.79,87.33Z"/>
      <path class="cls-7" d="M241.25,332.11c-.86.14-53.57,8.69-64.31,68.45-15.06-16.08-28.67-33.14-38.32-47.51.27-4.69,1.17-13.86,4.14-25.04,2.22-8.37,5.6-17.88,10.74-27.51,4.19-7.83,9.53-15.72,16.37-23.13,6.81-7.39,15.1-14.3,25.18-20.18,5.51-3.21,11.56-6.13,18.21-8.66,4.27,10.01,7.88,20.32,11.56,30.88,2.89,8.27,5.87,16.83,9.25,25.42l.03.09c1.33,6.26,6.03,6.74,7.45,6.74.41,0,.83-.03,1.23-.09,0,0-1.82,8.92-1.53,20.54Z"/>
      <path class="cls-6" d="M270.13,381.58c-3.08,7.85-6.67,15.64-10.76,23.39-1.66,1.01-2.91,2.62-3.36,4.51-.17.7-.22,1.39-.18,2.06l-1.34,2.48s-27.38-4.21-31.45,27.59c-15.17-10.43-31.33-25.27-46.1-41.05,10.74-59.76,63.45-68.31,64.31-68.45.44,17.44,5.64,40.96,28.88,49.47Z"/>
      <path class="cls-4" d="M345.07,392.14c-20.88,33.67-49.79,64.68-82.43,64.69-3.03,0-6.1-.27-9.12-.82-9.03-1.62-19.5-6.86-30.48-14.41,4.07-31.8,31.45-27.59,31.45-27.59l2.25.51c.63,1.08,1.58,2,2.77,2.59,1.14.6,2.42.89,3.69.89,2.86,0,5.48-1.55,6.79-3.89,1.58-1.31,2.57-2.95,3.14-3.91.12-.19.23-.4.35-.57,9.69-13.61,16.69-29.57,21.54-46,2.76,5.08,6.8,9.32,11.47,12.84,6.19,4.7,13.48,8.14,20.24,10.61,7.45,2.73,14.28,4.28,18.34,5.05Z"/>
      <path class="cls-5" d="M213.26,248.53c-6.65,2.53-12.7,5.45-18.21,8.66-10.08,5.88-18.37,12.79-25.18,20.18-1.03,1.12-2.03,2.25-2.99,3.39-10.47-31.99-44.47-45.88-44.47-45.88,4.97-8.66,10.97-17.11,17.42-24.15,10.14-11.06,20.14-17.32,28.18-17.63l.19-.02c5.2,0,14.05,6.92,23.09,18.07,9.64,11.87,16.38,24.37,21.97,37.38Z"/>
      <path class="cls-4" d="M166.88,280.76c-5.44,6.4-9.82,13.09-13.38,19.74-5.14,9.63-8.52,19.14-10.74,27.51-2.97,11.18-3.87,20.35-4.14,25.04-3.26-4.86-6.07-9.41-8.32-13.51-9.97-18.11-20.78-46.96-21.59-63.88-.49-10.12,5.07-25.78,13.7-40.78,0,0,34,13.89,44.47,45.88Z"/>
      <path class="cls-4" d="M376.06,326.38c-30.36-10.35-36.61-55.15-37.76-67.43,13.03-.03,27.9-2.66,42.4-7.47,9.74,22.5,4.15,48.95-4.64,74.9Z"/>
      <path class="cls-8" d="M376.06,326.38c-.87,2.56-1.76,5.11-2.68,7.66-5.81,16.08-15.55,37.59-28.31,58.1-4.05-.77-10.88-2.32-18.33-5.05-6.77-2.48-14.05-5.91-20.24-10.61-4.67-3.53-8.71-7.77-11.47-12.85,7.89-26.69,10.11-54.58,8.98-75.45-.26-4.85-.91-9.5-1.54-14.01-1.16-8.18-2.25-15.89-.83-23.69.11-.68.27-1.35.44-2.02,3.09,2.86,6.76,5.35,12,7.03,7.11,2.3,15.17,3.46,23.98,3.46h.24c1.15,12.28,7.4,57.08,37.76,67.43Z"/>
      <path class="cls-5" d="M393.51,133.21c-4.11,3.32-8.52,6.55-13.15,9.78h0c-55.29,6.18-62.86-30.41-62.86-30.41,6.6-2.09,13.21-4.68,18.8-6.88,1.55-.62,2.99-1.18,4.3-1.68,10.86-4.16,21.41-8.75,31.41-13.26,2.06,10.78,6.7,20.46,9.54,25.69.6,1.1,3.42,5.68,6.57,10.06,2.05,2.87,3.81,5.06,5.4,6.7Z"/>
      <path class="cls-6" d="M380.35,142.99c-6.2,4.32-12.8,8.6-19.58,13.02-5.29,3.43-10.69,6.96-16.08,10.6-13.21,6.04-25.91,8.51-37.69,8.72-6.37.12-12.49-.44-18.26-1.48-9.68-1.71-18.41-4.74-25.92-8.16-7.26-3.29-13.37-6.95-18.05-10.11-6.48-4.38-10.22-7.83-10.49-8.07,2.39-1.44,3.99-2.66,5.05-4.12,4.61-6.35,2.39-12.99.91-17.38-1.74-5.18-1.89-6.51.45-8.79,6.11-5.95,22.41-12,32.31-12,.92,0,1.76.05,2.51.16.52.4,1.39,1.22,2.06,1.84,3.5,3.26,8.81,8.2,17.02,9.11.93.1,1.93.15,2.96.15,5.83,0,12.89-1.66,19.94-3.9,0,0,7.57,36.59,62.86,30.41Z"/>
      <path class="cls-5" d="M245.94,71.48l-25.58,5.13-2.13-6.53c-.16-.47-.44-1.32-.83-2.44-1.96-5.7-3.37-10.02-4.24-12.92l13.44-5.02c6.61,14.95,9.45,19.88,13.9,21.23,1.65.49,4.35.54,5.43.54Z"/>
      <path class="cls-3" d="M278.75,73.9l-25.9-5.78c1.28-2.14,1.32-5.46,1.4-16.03.03-2.67.05-6.17.13-8.82,1.83-.05,4.5-.09,7.66-.09,2.95,0,5.25.04,6.91.08.08.97.14,2.03.19,3.05,1,16.06,1.98,25.98,9.62,27.6Z"/>
      <path class="cls-8" d="M310.41,53.83l-7.41,27.91-16.26-10.73c.87-.98,1.46-1.96,1.83-2.55l.21-.32c1.11-1.72,2.42-4.78,4.65-10.03,1.06-2.53,2.58-6.13,3.82-8.77l13.17,4.5Z"/>
      <path class="cls-4" d="M315.55,92.94c-5.27,1.84-10.6,3.46-15.34,3.46-2.97,0-5.46-.66-7.58-2.01-.51-.34-1.66-1.58-2.42-2.41-2.11-2.28-4.5-4.86-7.79-5.88-2.57-.78-5.53-1.18-8.83-1.18-17.46,0-41.95,10.89-50.49,22.41-24.57-3.29-29.55-13.52-30.39-16,5.44-6.13,12.39-10.73,20.98-12.97l6.66-1.74,25.58-5.13c1.41,0,3.77,0,5.77-1.96.45-.45.83-.89,1.14-1.4l25.9,5.78c.53.1,1.08.17,1.63.17,2.92,0,4.99-1.53,6.35-3.06l16.26,10.73,12.56,11.2Z"/>
      <path class="cls-8" d="M223.04,107.41c-6.53,8.9-3.64,18.38-1.92,24.03.06.18.12.38.18.57-.47.21-.92.41-1.32.58-3.63,1.63-5.91,2.67-7.2,3.5-11.69,7.48-18.78,18.8-25.65,29.77-1.3,2.07-2.57,4.08-3.84,6.04-2.63-8.02-5.75-20.18-6.06-23.57-1.83-19.94,2.7-42.65,15.49-57.01.84,2.49,5.82,12.71,30.39,16-.03.03-.04.06-.06.09Z"/>
      <path class="cls-6" d="M376.65,231.22c-37.85-.54-46.24-26.01-46.24-26.01,8.02-7.54,17.69-14.97,29.97-23.07,8.44,9.28,15.29,25.14,16.24,38.42.25,3.58.68,9.59.03,10.66Z"/>
      <path class="cls-7" d="M376.65,231.22c-.74.94-6.29,2.6-8.96,3.4-6.8,2.03-18.72,4.08-30.04,4.08-10.68,0-18.92-1.87-22.63-5.13-2.26-1.98-2.59-3.44-2.64-4.37-.26-4.41,5.53-10.85,9.37-15.11l.4-.45c2.56-2.85,5.3-5.65,8.26-8.43,0,0,8.39,25.47,46.24,26.01Z"/>
      <path class="cls-4" d="M179.62,74.17c-2.23,4.68-5.95,10.2-8.03,13.3-2.25,3.36-4.21,6.25-5.43,8.73-7.66,15.68-9.78,30.61-8.95,45.59,0,0-22.46,12.39-37.68,3.08,7.45-24.31,12.19-48.63,16.24-71.73,7.13,2.55,15.05,3.89,23.18,3.89,7.02,0,14.05-.98,20.68-2.86Z"/>
      <path class="cls-3" d="M162.46,173.93c-8.42,1.4-15.69,5.73-21.85,9.99-14.2,9.78-26.81,24.65-36.35,42.62-5.51-22.09,1.62-42.28,9.15-63.61,2.07-5.86,4.21-11.92,6.1-18.05,15.23,9.3,37.68-3.08,37.68-3.08.58,10.59,2.64,21.2,5.26,32.14Z"/>
    </g>
    <g>
      <path class="cls-2" d="M138.5,356.47s-.62-80.8,76.87-108.72"/>
      <path class="cls-2" d="M348.91,392.79s-47.73-6.29-56.42-35.19"/>
      <path class="cls-2" d="M234.27,147.5s49.91,46.75,110.41,19.11"/>
      <line class="cls-2" x1="151.41" y1="321.02" x2="143.45" y2="302.11"/>
      <line class="cls-2" x1="187.61" y1="273.17" x2="186.8" y2="250"/>
      <line class="cls-2" x1="257.68" y1="173.55" x2="260.39" y2="156.72"/>
      <line class="cls-2" x1="295.69" y1="183.74" x2="294.36" y2="166.95"/>
      <line class="cls-2" x1="304.12" y1="386.69" x2="323.78" y2="377.71"/>
    </g>
    <path class="cls-2" d="M242.78,311.57s-11.37,55.84,27.36,70.01"/>
    <path class="cls-2" d="M193.24,90.76s2.43,12.99,29.8,16.65"/>
    <path class="cls-2" d="M157.2,141.79s-22.46,12.39-37.69,3.09"/>
    <path class="cls-2" d="M254.49,414.02s-27.38-4.22-31.45,27.59"/>
    <line class="cls-2" x1="248.61" y1="337.88" x2="236.07" y2="352.16"/>
    <line class="cls-2" x1="243.36" y1="407.71" x2="242.34" y2="425.2"/>
    <line class="cls-2" x1="131.3" y1="137.11" x2="140.96" y2="156.86"/>
    <line class="cls-2" x1="212.75" y1="94.07" x2="198.75" y2="109.62"/>
    <path class="cls-2" d="M338.06,258.95s2.77,54.31,38.93,64.63"/>
    <path class="cls-2" d="M330.41,205.21s8.39,25.48,46.24,26.01"/>
    <path class="cls-2" d="M236.07,253.79s17.05,15.74,44.64,0"/>
    <path class="cls-2" d="M122.41,234.88s34,13.89,44.47,45.88"/>
    <path class="cls-2" d="M241.26,332.11s-53.48,8.2-64.32,68.45"/>
    <path class="cls-2" d="M317.49,112.58s7.58,36.59,62.87,30.41"/>
    <line class="cls-2" x1="220.36" y1="76.61" x2="245.94" y2="71.48"/>
    <line class="cls-2" x1="252.85" y1="68.12" x2="278.75" y2="73.9"/>
    <line class="cls-2" x1="286.73" y1="71.01" x2="303" y2="81.74"/>
    <line class="cls-2" x1="333.58" y1="225.49" x2="353.53" y2="214.24"/>
  </g>
</svg>