<?xml version="1.0" encoding="UTF-8"?>
<svg id="Camada_1" data-name="Camada 1" xmlns="http://www.w3.org/2000/svg" viewBox="0 0 500 500">
  <defs>
    <style>
      .cls-1 {
        fill: #f6f6f6;
      }

      .cls-2 {
        fill: #29235c;
      }

      .cls-3 {
        stroke: #0e93b1;
        stroke-width: 10px;
      }

      .cls-3, .cls-4 {
        fill: none;
        stroke-miterlimit: 10;
      }

      .cls-4 {
        stroke: #f6f6f6;
        stroke-width: 8px;
      }

      .cls-5 {
        fill: #0e93b1;
      }
    </style>
  </defs>
  <g>
    <path class="cls-2" d="M250,492.5c-64.77,0-125.67-25.22-171.47-71.03C32.72,375.67,7.5,314.77,7.5,250s25.22-125.67,71.03-171.47C124.33,32.72,185.23,7.5,250,7.5s125.67,25.22,171.47,71.03c45.8,45.8,71.03,106.7,71.03,171.47s-25.22,125.67-71.03,171.47c-45.8,45.8-106.7,71.03-171.47,71.03Z"/>
    <path class="cls-5" d="M250,15c31.73,0,62.51,6.21,91.47,18.46,27.98,11.84,53.12,28.78,74.7,50.37,21.59,21.59,38.53,46.72,50.37,74.7,12.25,28.96,18.46,59.74,18.46,91.47s-6.21,62.51-18.46,91.47c-11.84,27.98-28.78,53.12-50.37,74.7-21.59,21.59-46.72,38.53-74.7,50.37-28.96,12.25-59.74,18.46-91.47,18.46s-62.51-6.21-91.47-18.46c-27.98-11.84-53.12-28.78-74.7-50.37-21.59-21.59-38.53-46.72-50.37-74.7-12.25-28.96-18.46-59.74-18.46-91.47s6.21-62.51,18.46-91.47c11.84-27.98,28.78-53.12,50.37-74.7,21.59-21.59,46.72-38.53,74.7-50.37,28.96-12.25,59.74-18.46,91.47-18.46M250,0C111.93,0,0,111.93,0,250s111.93,250,250,250,250-111.93,250-250S388.07,0,250,0h0Z"/>
  </g>
  <g>
    <g>
      <polygon class="cls-4" points="293.54 140.47 250 215.88 206.46 140.47 250 65.05 293.54 140.47"/>
      <polygon class="cls-1" points="342.47 116.33 319.52 129.58 319.52 103.08 342.48 89.83 342.47 116.33"/>
      <polygon class="cls-4" points="176.92 157.53 220.46 232.94 133.38 232.94 89.83 157.52 176.92 157.53"/>
      <polygon class="cls-1" points="180.48 103.08 180.48 129.58 157.53 116.33 157.53 89.83 180.48 103.08"/>
      <polygon class="cls-4" points="133.38 267.06 220.46 267.06 176.92 342.47 89.83 342.47 133.38 267.06"/>
      <polygon class="cls-1" points="88 236.75 110.95 250 88 263.25 65.05 250 88 236.75"/>
      <polygon class="cls-4" points="206.46 359.53 250 284.12 293.54 359.53 250 434.95 206.46 359.53"/>
      <polygon class="cls-1" points="157.53 383.67 180.48 370.42 180.48 396.92 157.52 410.17 157.53 383.67"/>
      <polygon class="cls-4" points="323.08 342.47 279.54 267.06 366.62 267.06 410.17 342.48 323.08 342.47"/>
      <polygon class="cls-1" points="319.52 396.92 319.52 370.42 342.47 383.67 342.47 410.17 319.52 396.92"/>
      <polygon class="cls-4" points="366.62 232.94 279.54 232.94 323.08 157.53 410.17 157.53 366.62 232.94"/>
      <polygon class="cls-1" points="412 263.25 389.05 250 412 236.75 434.95 250 412 263.25"/>
    </g>
    <g>
      <path class="cls-5" d="M410.17,250.01c-42,47.26-98.28,76.23-160.19,76.23s-118.15-28.92-160.15-76.23c42-47.26,98.32-76.23,160.19-76.23s118.15,28.92,160.15,76.23Z"/>
      <path class="cls-3" d="M449.9,250.01c-52.41,58.98-122.66,95.14-199.93,95.14s-147.46-36.09-199.87-95.14c52.41-58.98,122.71-95.14,199.93-95.14s147.46,36.09,199.87,95.14Z"/>
      <circle class="cls-1" cx="249.97" cy="249.99" r="43.57"/>
      <circle class="cls-5" cx="250" cy="380" r="10"/>
      <circle class="cls-5" cx="250" cy="120" r="10"/>
    </g>
  </g>
</svg>