<?xml version="1.0" encoding="UTF-8"?>
<svg id="Camada_1" data-name="Camada 1" xmlns="http://www.w3.org/2000/svg" viewBox="0 0 500 500">
  <defs>
    <style>
      .cls-1 {
        fill: #805a54;
      }

      .cls-2 {
        fill: #e73b34;
      }

      .cls-3 {
        fill: #613c2e;
      }

      .cls-4 {
        fill: #f3e4c8;
      }
    </style>
  </defs>
  <g>
    <path class="cls-1" d="M250,492.5c-64.77,0-125.67-25.22-171.47-71.03C32.72,375.67,7.5,314.77,7.5,250s25.22-125.67,71.03-171.47C124.33,32.72,185.23,7.5,250,7.5s125.67,25.22,171.47,71.03c45.8,45.8,71.03,106.7,71.03,171.47s-25.22,125.67-71.03,171.47c-45.8,45.8-106.7,71.03-171.47,71.03Z"/>
    <path class="cls-4" d="M250,15c31.73,0,62.51,6.21,91.47,18.46,27.98,11.84,53.12,28.78,74.7,50.37,21.59,21.59,38.53,46.72,50.37,74.7,12.25,28.96,18.46,59.74,18.46,91.47s-6.21,62.51-18.46,91.47c-11.84,27.98-28.78,53.12-50.37,74.7s-46.72,38.53-74.7,50.37c-28.96,12.25-59.74,18.46-91.47,18.46s-62.51-6.21-91.47-18.46c-27.98-11.84-53.12-28.78-74.7-50.37s-38.53-46.72-50.37-74.7c-12.25-28.96-18.46-59.74-18.46-91.47s6.21-62.51,18.46-91.47c11.84-27.98,28.78-53.12,50.37-74.7,21.59-21.59,46.72-38.53,74.7-50.37,28.96-12.25,59.74-18.46,91.47-18.46M250,0C111.93,0,0,111.93,0,250s111.93,250,250,250,250-111.93,250-250S388.07,0,250,0h0Z"/>
  </g>
  <polygon class="cls-3" points="331.16 250.41 243 346.65 266.09 459.75 173.66 353.68 224.19 250.41 128.4 168.92 173.66 77.24 366.8 77.24 286.62 144.28 331.16 250.41"/>
  <path class="cls-2" d="M181.22,283.51l-53.92-25.18c-25.06-11.7-41.64-35.24-47.87-61.57-7.89-33.34,12.91-84.8,42.3-102.4l45.73-23.87-35.25,39.97c-14.71,15.96-21.21,27.75-19.48,49.38,1.96,24.36,15.22,44.41,42.21,56.95l27.3,12.68-1.03,54.04Z"/>
  <path class="cls-2" d="M318.78,283.51l53.92-25.18c25.06-11.7,41.64-35.24,47.87-61.57,7.89-33.34-12.91-84.8-42.3-102.4l-45.73-23.87,35.25,39.97c14.71,15.96,21.21,27.75,19.48,49.38-1.96,24.36-15.22,44.41-42.21,56.95l-27.3,12.68,1.03,54.04Z"/>
  <path class="cls-4" d="M380.3,288.07l-11.64-5.56c-11.56-5.52-13.46-21.18-3.56-29.31l9.97-8.19c7.59-6.23,2.92-18.54-6.89-18.18l-12.89.48c-12.8.48-21.76-12.5-16.77-24.3l5.02-11.88c3.82-9.05-6.03-17.78-14.55-12.89l-11.19,6.42c-11.11,6.37-25.08-.96-26.15-13.72l-1.08-12.86c-.82-9.79-13.6-12.94-18.87-4.65l-6.93,10.88c-6.88,10.81-22.65,10.81-29.53,0l-6.93-10.88c-5.27-8.29-18.06-5.14-18.87,4.65l-1.08,12.86c-1.07,12.76-15.04,20.1-26.15,13.72l-11.19-6.42c-8.52-4.89-18.37,3.84-14.55,12.89l5.02,11.88c4.99,11.8-3.97,24.78-16.77,24.3l-12.89-.48c-9.82-.37-14.48,11.94-6.89,18.18l9.97,8.19c9.9,8.13,8,23.79-3.56,29.31l-11.64,5.56c-8.86,4.24-7.27,17.31,2.34,19.3l12.63,2.62c12.54,2.6,18.14,17.35,10.47,27.61l-7.72,10.34c-5.88,7.87,1.6,18.7,11.04,16l12.4-3.55c12.31-3.53,24.12,6.93,22.1,19.58l-2.03,12.74c-1.55,9.7,10.11,15.82,17.21,9.03l9.33-8.91c9.26-8.85,24.58-5.07,28.67,7.07l4.12,12.22c3.14,9.31,16.3,9.31,19.44,0l4.12-12.22c4.09-12.14,19.41-15.91,28.67-7.07l9.33,8.91c7.1,6.78,18.76.67,17.21-9.03l-2.03-12.74c-2.02-12.65,9.79-23.11,22.1-19.58l12.4,3.55c9.44,2.71,16.92-8.13,11.04-16l-7.72-10.34c-7.67-10.26-2.07-25.01,10.47-27.61l12.63-2.62c9.62-1.99,11.2-15.06,2.34-19.3ZM250,326.75c-23.61,0-42.75-19.14-42.75-42.75s19.14-42.75,42.75-42.75,42.75,19.14,42.75,42.75-19.14,42.75-42.75,42.75Z"/>
</svg>