<?xml version="1.0" encoding="UTF-8"?>
<svg id="Camada_1" data-name="Camada 1" xmlns="http://www.w3.org/2000/svg" xmlns:xlink="http://www.w3.org/1999/xlink" viewBox="0 0 500 500">
  <defs>
    <style>
      .cls-1 {
        fill: #dadada;
      }

      .cls-2 {
        stroke: #dadada;
        stroke-width: 10px;
      }

      .cls-2, .cls-3 {
        fill: none;
        stroke-miterlimit: 10;
      }

      .cls-4 {
        fill: #246f84;
      }

      .cls-5 {
        fill: #fff;
      }

      .cls-6 {
        mask: url(#mask);
      }

      .cls-3 {
        stroke: #93cdb8;
        stroke-width: 25px;
      }

      .cls-7 {
        fill: #2fb086;
      }
    </style>
    <mask id="mask" x="-20.02" y="14.42" width="539.4" height="539.4" maskUnits="userSpaceOnUse">
      <polyline class="cls-5" points="249.79 465.98 115 397.75 251.14 33.98 251.14 34.02 385 398.64 249.79 466.02"/>
    </mask>
  </defs>
  <g>
    <path class="cls-4" d="M250,492.5c-64.77,0-125.67-25.22-171.47-71.03C32.72,375.67,7.5,314.77,7.5,250s25.22-125.67,71.03-171.47C124.33,32.72,185.23,7.5,250,7.5s125.67,25.22,171.47,71.03c45.8,45.8,71.03,106.7,71.03,171.47s-25.22,125.67-71.03,171.47c-45.8,45.8-106.7,71.03-171.47,71.03Z"/>
    <path class="cls-7" d="M250,15c31.73,0,62.51,6.21,91.47,18.46,27.98,11.84,53.12,28.78,74.7,50.37,21.59,21.59,38.53,46.72,50.37,74.7,12.25,28.96,18.46,59.74,18.46,91.47s-6.21,62.51-18.46,91.47c-11.84,27.98-28.78,53.12-50.37,74.7s-46.72,38.53-74.7,50.37c-28.96,12.25-59.74,18.46-91.47,18.46s-62.51-6.21-91.47-18.46c-27.98-11.84-53.12-28.78-74.7-50.37-21.59-21.59-38.53-46.72-50.37-74.7-12.25-28.96-18.46-59.74-18.46-91.47s6.21-62.51,18.46-91.47c11.84-27.98,28.78-53.12,50.37-74.7,21.59-21.59,46.72-38.53,74.7-50.37,28.96-12.25,59.74-18.46,91.47-18.46M250,0C111.93,0,0,111.93,0,250s111.93,250,250,250,250-111.93,250-250S388.07,0,250,0h0Z"/>
  </g>
  <polyline class="cls-7" points="249.79 465.98 115 397.75 251.14 33.98 251.14 34.02 385 398.64 249.79 466.02"/>
  <g class="cls-6">
    <g>
      <line class="cls-3" x1="-11.18" y1="332.84" x2="298.41" y2="23.26"/>
      <line class="cls-3" x1="31.25" y1="375.27" x2="340.83" y2="65.68"/>
      <line class="cls-3" x1="73.67" y1="417.7" x2="383.26" y2="108.11"/>
      <line class="cls-3" x1="116.1" y1="460.12" x2="425.69" y2="150.54"/>
      <line class="cls-3" x1="158.52" y1="502.55" x2="468.11" y2="192.96"/>
      <line class="cls-3" x1="200.95" y1="544.98" x2="510.54" y2="235.39"/>
    </g>
  </g>
  <g>
    <rect class="cls-1" x="100" y="142" width="300" height="30"/>
    <rect class="cls-1" x="112.5" y="239.5" width="275" height="30" transform="translate(504.5 4.5) rotate(90)"/>
    <rect class="cls-1" x="100" y="142" width="30" height="30"/>
    <polygon class="cls-1" points="180 290.6 115 330.6 50 290.6 180 290.6"/>
    <line class="cls-2" x1="115" y1="157" x2="65" y2="295.35"/>
    <line class="cls-2" x1="115" y1="157" x2="165" y2="295.35"/>
    <rect class="cls-1" x="370" y="142" width="30" height="30"/>
    <line class="cls-2" x1="385" y1="157" x2="335" y2="295.35"/>
    <line class="cls-2" x1="385" y1="157" x2="435" y2="295.35"/>
    <polygon class="cls-1" points="450 290.6 385 330.6 320 290.6 450 290.6"/>
  </g>
</svg>